<svg xmlns="http://www.w3.org/2000/svg" width="21.094" height="28.625" viewBox="0 0 21.094 28.625">
  <metadata><?xpacket begin="﻿" id="W5M0MpCehiHzreSzNTczkc9d"?>
<x:xmpmeta xmlns:x="adobe:ns:meta/" x:xmptk="Adobe XMP Core 5.6-c138 79.159824, 2016/09/14-01:09:01        ">
   <rdf:RDF xmlns:rdf="http://www.w3.org/1999/02/22-rdf-syntax-ns#">
      <rdf:Description rdf:about=""/>
   </rdf:RDF>
</x:xmpmeta>
                                                                                                    
                                                                                                    
                                                                                                    
                                                                                                    
                                                                                                    
                                                                                                    
                                                                                                    
                                                                                                    
                                                                                                    
                                                                                                    
                                                                                                    
                                                                                                    
                                                                                                    
                                                                                                    
                                                                                                    
                                                                                                    
                                                                                                    
                                                                                                    
                                                                                                    
                                                                                                    
                           
<?xpacket end="w"?></metadata>
<defs>
    <style>
      .cls-1 {
        fill: #1b1b1b;
        fill-rule: evenodd;
      }
    </style>
  </defs>
  <path class="cls-1" d="M555.57,372.848h-0.415v-3.73a8.613,8.613,0,1,0-17.223,0,0.789,0.789,0,1,0,1.577,0,7.036,7.036,0,1,1,14.07,0v3.73H537.524A1.537,1.537,0,0,0,536,374.4v9.968A4.608,4.608,0,0,0,540.565,389h11.963a4.609,4.609,0,0,0,4.566-4.637V374.4A1.538,1.538,0,0,0,555.57,372.848Zm-0.053,11.515a3.015,3.015,0,0,1-2.989,3.036H540.571a3.015,3.015,0,0,1-2.989-3.036v-9.914h17.935v9.914h0Zm-8.967-.326a2.995,2.995,0,1,0-2.949-2.994A2.974,2.974,0,0,0,546.55,384.037Zm0-4.394a1.4,1.4,0,1,1-1.372,1.4A1.385,1.385,0,0,1,546.55,379.643Z" transform="translate(-536 -360.375)"/>
</svg>
