<?xml version="1.0" encoding="iso-8859-1"?>
<!-- Generator: Adobe Illustrator 19.0.0, SVG Export Plug-In . SVG Version: 6.00 Build 0)  -->
<svg xmlns="http://www.w3.org/2000/svg" xmlns:xlink="http://www.w3.org/1999/xlink" version="1.1" id="Capa_1" x="0px" y="0px" viewBox="0 0 511 511" style="enable-background:new 0 0 511 511;" xml:space="preserve" width="512px" height="512px">
<g>
	<path d="M503.5,476H487V267h16.5c2.737,0,5.257-1.491,6.575-3.891c1.317-2.4,1.222-5.327-0.247-7.636l-56-88   c-1.377-2.164-3.763-3.474-6.328-3.474H298.606L263,128.394V99h72.5c2.766,0,5.308-1.522,6.613-3.961   c1.305-2.438,1.162-5.398-0.373-7.699L328.514,67.5l13.227-19.84c1.535-2.301,1.677-5.261,0.373-7.699   C340.808,37.522,338.266,36,335.5,36H263v-8.5c0-4.142-3.358-7.5-7.5-7.5s-7.5,3.358-7.5,7.5v100.894L212.394,164H63.5   c-2.564,0-4.951,1.31-6.328,3.474l-56,88c-1.469,2.309-1.564,5.236-0.247,7.636C2.243,265.509,4.763,267,7.5,267H24v209H7.5   c-4.142,0-7.5,3.358-7.5,7.5s3.358,7.5,7.5,7.5h496c4.142,0,7.5-3.358,7.5-7.5S507.642,476,503.5,476z M443.383,179l46.455,73   H386.606l-73-73H443.383z M321.486,51l-8.227,12.34c-1.68,2.519-1.68,5.801,0,8.32L321.486,84H263V51H321.486z M67.617,179h129.776   l-73,73H21.163L67.617,179z M39,267h88.498c0.248,0,0.496-0.013,0.744-0.038c0.106-0.01,0.21-0.03,0.315-0.045   c0.137-0.02,0.274-0.036,0.411-0.063c0.122-0.024,0.24-0.058,0.36-0.088c0.117-0.029,0.235-0.056,0.351-0.09   c0.118-0.036,0.233-0.081,0.349-0.122c0.115-0.041,0.23-0.079,0.344-0.126c0.109-0.045,0.213-0.098,0.319-0.148   c0.115-0.055,0.232-0.106,0.345-0.167c0.103-0.055,0.2-0.118,0.3-0.177c0.11-0.065,0.222-0.128,0.329-0.2   c0.112-0.075,0.217-0.158,0.324-0.239c0.088-0.066,0.179-0.127,0.264-0.198c0.192-0.157,0.376-0.323,0.551-0.499L255.5,142.106   l122.696,122.695c0.175,0.175,0.36,0.341,0.551,0.499c0.085,0.07,0.175,0.131,0.263,0.197c0.108,0.081,0.214,0.165,0.326,0.24   c0.106,0.071,0.217,0.133,0.326,0.198c0.101,0.061,0.199,0.124,0.303,0.179c0.112,0.06,0.227,0.111,0.342,0.165   c0.107,0.051,0.213,0.104,0.323,0.15c0.112,0.046,0.226,0.083,0.339,0.124c0.117,0.042,0.233,0.087,0.353,0.124   c0.114,0.035,0.23,0.06,0.345,0.089c0.122,0.031,0.242,0.065,0.366,0.089c0.132,0.026,0.265,0.042,0.398,0.061   c0.109,0.016,0.217,0.036,0.328,0.047c0.246,0.024,0.493,0.037,0.74,0.037H472v209H311V371.5c0-12.958-10.542-23.5-23.5-23.5h-64   c-12.958,0-23.5,10.542-23.5,23.5V476H39V267z M296,380h-81v-8.5c0-4.687,3.813-8.5,8.5-8.5h64c4.687,0,8.5,3.813,8.5,8.5V380z    M215,395h33v81h-33V395z M263,395h33v81h-33V395z" fill="#d15d10"/>
	<path d="M255.5,323c30.603,0,55.5-24.897,55.5-55.5S286.103,212,255.5,212S200,236.897,200,267.5S224.897,323,255.5,323z    M255.5,227c22.332,0,40.5,18.168,40.5,40.5S277.832,308,255.5,308S215,289.832,215,267.5S233.168,227,255.5,227z" fill="#d15d10"/>
	<path d="M255.5,275c4.142,0,7.5-3.358,7.5-7.5v-24c0-4.142-3.358-7.5-7.5-7.5s-7.5,3.358-7.5,7.5V260h-16.5   c-4.142,0-7.5,3.358-7.5,7.5s3.358,7.5,7.5,7.5H255.5z" fill="#d15d10"/>
	<path d="M175.5,388h-40c-4.142,0-7.5,3.358-7.5,7.5v48c0,4.142,3.358,7.5,7.5,7.5h40c4.142,0,7.5-3.358,7.5-7.5v-48   C183,391.358,179.642,388,175.5,388z M168,403v9h-25v-9H168z M143,436v-9h25v9H143z" fill="#d15d10"/>
	<path d="M103.5,388h-40c-4.142,0-7.5,3.358-7.5,7.5v48c0,4.142,3.358,7.5,7.5,7.5h40c4.142,0,7.5-3.358,7.5-7.5v-48   C111,391.358,107.642,388,103.5,388z M96,403v9H71v-9H96z M71,436v-9h25v9H71z" fill="#d15d10"/>
	<path d="M173,292h-35c-5.514,0-10,4.486-10,10v53.5c0,4.142,3.358,7.5,7.5,7.5h40c4.142,0,7.5-3.358,7.5-7.5V302   C183,296.486,178.514,292,173,292z M168,307v17h-25v-17H168z M143,348v-9h25v9H143z" fill="#d15d10"/>
	<path d="M101,292H66c-5.514,0-10,4.486-10,10v53.5c0,4.142,3.358,7.5,7.5,7.5h40c4.142,0,7.5-3.358,7.5-7.5V302   C111,296.486,106.514,292,101,292z M96,307v17H71v-17H96z M71,348v-9h25v9H71z" fill="#d15d10"/>
	<path d="M407.5,451h40c4.142,0,7.5-3.358,7.5-7.5v-48c0-4.142-3.358-7.5-7.5-7.5h-40c-4.142,0-7.5,3.358-7.5,7.5v48   C400,447.642,403.358,451,407.5,451z M415,436v-9h25v9H415z M440,403v9h-25v-9H440z" fill="#d15d10"/>
	<path d="M335.5,451h40c4.142,0,7.5-3.358,7.5-7.5v-48c0-4.142-3.358-7.5-7.5-7.5h-40c-4.142,0-7.5,3.358-7.5,7.5v48   C328,447.642,331.358,451,335.5,451z M343,436v-9h25v9H343z M368,403v9h-25v-9H368z" fill="#d15d10"/>
	<path d="M407.5,363h40c4.142,0,7.5-3.358,7.5-7.5V302c0-5.514-4.486-10-10-10h-35c-5.514,0-10,4.486-10,10v53.5   C400,359.642,403.358,363,407.5,363z M415,348v-9h25v9H415z M440,307v17h-25v-17H440z" fill="#d15d10"/>
	<path d="M335.5,363h40c4.142,0,7.5-3.358,7.5-7.5V302c0-5.514-4.486-10-10-10h-35c-5.514,0-10,4.486-10,10v53.5   C328,359.642,331.358,363,335.5,363z M343,348v-9h25v9H343z M368,307v17h-25v-17H368z" fill="#d15d10"/>
</g>
<g>
</g>
<g>
</g>
<g>
</g>
<g>
</g>
<g>
</g>
<g>
</g>
<g>
</g>
<g>
</g>
<g>
</g>
<g>
</g>
<g>
</g>
<g>
</g>
<g>
</g>
<g>
</g>
<g>
</g>
</svg>
