<?xml version="1.0" encoding="iso-8859-1"?>
<!-- Generator: Adobe Illustrator 19.0.0, SVG Export Plug-In . SVG Version: 6.00 Build 0)  -->
<svg xmlns="http://www.w3.org/2000/svg" xmlns:xlink="http://www.w3.org/1999/xlink" version="1.1" id="Capa_1" x="0px" y="0px" viewBox="0 0 512 512" style="enable-background:new 0 0 512 512;" xml:space="preserve" width="512px" height="512px">
<g>
	<g>
		<path d="M488.138,384.851v-160.58v-9.051c0-60.188-48.967-109.155-109.155-109.155c-60.188,0-109.155,48.967-109.155,109.155    v9.051v160.58c-5.571,4.91-10.259,10.568-13.965,16.777c-12.401-20.479-34.895-34.215-60.481-34.215h-32.241v-22.421    c26.367-11.348,45.105-37.116,46.255-67.317h1.189c17.413,0,31.579-14.167,31.579-31.579c0-8.448-3.288-16.381-9.241-22.318    c-2.672-2.679-5.745-4.814-9.081-6.358v-1.578c0-50.079-40.743-90.822-90.822-90.822c-16.057,0-31.843,4.255-45.653,12.302    c-0.003,0.002-0.006,0.004-0.01,0.006c-27.857,16.221-45.161,46.303-45.161,78.514v1.594c-3.346,1.544-6.415,3.657-9.073,6.323    c-5.972,5.956-9.261,13.889-9.261,22.337c0,17.413,14.166,31.579,31.579,31.579h1.186c0.727,19.319,8.577,37.38,22.327,51.13    c6.994,6.988,15.109,12.441,23.931,16.223v22.386H70.653C31.695,367.413,0,399.108,0,438.066v46.911    c0,5.542,4.492,10.034,10.034,10.034H256c0.801,0,1.575-0.103,2.321-0.281h243.645c5.541,0,10.034-4.492,10.034-10.034v-46.911    C512,417.285,503.361,398.268,488.138,384.851z M209.47,234.586h1.114c3.078,0,5.964,1.194,8.146,3.383    c2.168,2.163,3.364,5.049,3.364,8.127c0,6.347-5.163,11.51-11.51,11.51h-1.114V234.586z M56.554,257.606h-1.114    c-6.346,0-11.51-5.163-11.51-11.51c0-3.078,1.194-5.964,3.385-8.148c1.523-1.527,3.397-2.571,5.465-3.053    c1.254-0.008,2.514-0.043,3.774-0.107V257.606z M133.017,145.089c37.74,0,68.673,29.7,70.653,66.955    c-1.767,0.305-3.541,0.554-5.315,0.746c-0.02,0.002-0.039,0.004-0.058,0.006c-3.18,0.363-6.48,0.548-9.808,0.548    c-25.274,0-49.383-10.868-66.147-29.818c-8.289-9.37-14.493-20.419-18.178-32.295    C113.191,147.196,123.034,145.089,133.017,145.089z M63.988,213.75c-0.566,0.105-1.132,0.212-1.701,0.301    c0.511-19.995,9.565-38.788,24.465-51.716c3.713,10.123,8.935,19.672,15.482,28.284c-9.236,11.655-22.348,19.829-36.929,22.867    C64.856,213.544,64.417,213.634,63.988,213.75z M93.141,314.608c-10.652-10.65-16.518-24.811-16.518-39.874v-7.094v-36.35    c15.258-4.65,28.943-13.638,39.323-25.762c19.803,17.841,45.632,27.883,72.541,27.883c0.305,0,0.608-0.01,0.913-0.013v34.24v7.094    c0,31.09-25.294,56.384-56.384,56.384C117.956,331.116,103.794,325.253,93.141,314.608z M143.072,351.187v16.226h-20.119v-16.226    H143.072z M245.965,474.943H20.069v-36.877c0-27.892,22.692-50.584,50.584-50.584h124.729c27.766,0,50.459,22.587,50.584,50.348    V474.943z M378.983,330.847c-15.065,0-29.221-5.865-39.866-16.517c-10.652-10.653-16.518-24.814-16.518-39.876v-46.342    c7.424-2.793,14.593-6.325,21.391-10.555c13.788-8.589,25.676-19.82,35.002-32.982c14.004,19.703,33.74,34.975,56.375,43.51    v46.369h0C435.367,305.549,410.073,330.847,378.983,330.847z M389.037,351.187v15.945h-20.109v-15.945H389.037z M301.406,277.674    h1.202c0.792,19.214,8.637,37.166,22.314,50.843c6.992,6.997,15.11,12.456,23.936,16.241v22.374h-32.24    c-9.312,0-18.329,1.789-26.722,5.225v-96.864C293.466,276.895,297.345,277.674,301.406,277.674z M289.897,246.096    c0-3.078,1.194-5.964,3.385-8.149c1.688-1.693,3.817-2.795,6.159-3.187c0.04-0.007,0.079-0.014,0.119-0.021    c0.563-0.101,1.184-0.153,1.846-0.153h1.124v23.019h-1.124C295.06,257.606,289.897,252.442,289.897,246.096z M409.106,344.72    c26.285-11.315,44.994-36.96,46.248-67.045h1.206c4.003,0,7.889-0.749,11.51-2.164v96.848c-8.393-3.437-17.41-5.226-26.722-5.226    h-32.242V344.72z M455.437,234.586h1.123c0.604,0,1.178,0.042,1.769,0.136c5.553,0.846,9.74,5.736,9.74,11.373    c0,3.073-1.197,5.963-3.373,8.137c-2.174,2.175-5.064,3.373-8.136,3.373h-1.124V234.586z M289.895,215.22    c0.002-49.122,39.966-89.086,89.088-89.086c49.123,0,89.086,39.964,89.086,89.086v0.049c-2.197-0.217-4.382-0.485-6.543-0.843    c-4.383-0.709-8.795-1.74-13.118-3.062c-0.024-0.007-0.048-0.014-0.072-0.021c-25.94-7.952-47.966-26.405-60.431-50.627    c-1.72-3.343-5.164-5.443-8.923-5.443s-7.203,2.101-8.923,5.444c-8.401,16.327-21.084,30.09-36.677,39.802    c-7.366,4.583-15.247,8.191-23.433,10.726l-14.182,3.293c-1.937,0.308-3.899,0.54-5.873,0.734V215.22z M491.932,474.662    L491.932,474.662H266.034v-36.877c0-15.103,6.558-29.079,18.059-38.726c1.371-0.639,2.577-1.57,3.526-2.725    c8.516-5.982,18.498-9.132,28.999-9.132h39.954c0.747,0.177,1.521,0.281,2.321,0.281h40.178c0.801,0,1.575-0.103,2.321-0.281    h39.954c11.193,0,21.798,3.58,30.665,10.353c0.001,0,0.001,0,0.001,0c12.659,9.664,19.919,24.328,19.919,40.23V474.662z" fill="#d15d10"/>
	</g>
</g>
<g>
	<g>
		<path d="M440.585,441.638h-56.193c-5.541,0-10.034,4.492-10.034,10.034s4.493,10.034,10.034,10.034h56.193    c5.541,0,10.034-4.492,10.034-10.034S446.127,441.638,440.585,441.638z" fill="#d15d10"/>
	</g>
</g>
<g>
	<g>
		<path d="M472.695,441.638c-12.913,0-12.935,20.069,0,20.069C485.608,461.707,485.629,441.638,472.695,441.638z" fill="#d15d10"/>
	</g>
</g>
</svg>
