<svg xmlns="http://www.w3.org/2000/svg" width="25" height="29.406" viewBox="0 0 25 29.406">
  <metadata><?xpacket begin="﻿" id="W5M0MpCehiHzreSzNTczkc9d"?>
<x:xmpmeta xmlns:x="adobe:ns:meta/" x:xmptk="Adobe XMP Core 5.6-c138 79.159824, 2016/09/14-01:09:01        ">
   <rdf:RDF xmlns:rdf="http://www.w3.org/1999/02/22-rdf-syntax-ns#">
      <rdf:Description rdf:about=""/>
   </rdf:RDF>
</x:xmpmeta>
                                                                                                    
                                                                                                    
                                                                                                    
                                                                                                    
                                                                                                    
                                                                                                    
                                                                                                    
                                                                                                    
                                                                                                    
                                                                                                    
                                                                                                    
                                                                                                    
                                                                                                    
                                                                                                    
                                                                                                    
                                                                                                    
                                                                                                    
                                                                                                    
                                                                                                    
                                                                                                    
                           
<?xpacket end="w"?></metadata>
<defs>
    <style>
      .cls-1 {
        fill: #1b1b1b;
        fill-rule: evenodd;
      }
    </style>
  </defs>
  <path class="cls-1" d="M548.383,301.842h0.195a5.6,5.6,0,0,0,4.287-1.857c2.341-2.642,1.952-7.172,1.91-7.6-0.152-3.246-1.685-4.8-2.95-5.523a6.758,6.758,0,0,0-3.272-.858h-0.1a6.761,6.761,0,0,0-3.272.834c-1.277.725-2.834,2.277-2.986,5.547-0.042.432-.431,4.962,1.91,7.6A5.582,5.582,0,0,0,548.383,301.842Zm-4.567-9.309c0-.018.006-0.037,0.006-0.049,0.2-4.365,3.3-4.834,4.622-4.834h0.073c1.642,0.036,4.433.706,4.622,4.834a0.122,0.122,0,0,0,.006.049c0.006,0.043.432,4.183-1.5,6.362a3.983,3.983,0,0,1-3.132,1.3H548.45a3.969,3.969,0,0,1-3.126-1.3C543.4,296.728,543.81,292.569,543.816,292.533Zm17.161,16.822v-0.018c0-.049-0.006-0.1-0.006-0.152-0.036-1.206-.115-4.024-2.754-4.926l-0.061-.018a17.559,17.559,0,0,1-5.048-2.3,0.821,0.821,0,0,0-.942,1.345,18.905,18.905,0,0,0,5.552,2.539c1.417,0.5,1.575,2.022,1.618,3.41a1.246,1.246,0,0,0,.006.152,11.1,11.1,0,0,1-.128,1.881,24.253,24.253,0,0,1-21.449-.006,10.422,10.422,0,0,1-.127-1.881c0-.049.006-0.1,0.006-0.152,0.042-1.389.2-2.905,1.617-3.41a19.079,19.079,0,0,0,5.552-2.539,0.821,0.821,0,0,0-.942-1.345,17.353,17.353,0,0,1-5.048,2.3c-0.024.006-.042,0.012-0.06,0.018-2.64.908-2.719,3.726-2.755,4.926a1.238,1.238,0,0,1-.006.152v0.018a9.355,9.355,0,0,0,.31,2.758,0.778,0.778,0,0,0,.316.384c0.183,0.122,4.555,2.91,11.871,2.91s11.688-2.794,11.87-2.91a0.813,0.813,0,0,0,.317-0.384A9.764,9.764,0,0,0,560.977,309.355Z" transform="translate(-536 -286)"/>
</svg>
