<svg viewBox="-49 0 512 512.001" xmlns="http://www.w3.org/2000/svg"><path d="m48.59375 504.5c0-87.355469 70.816406-158.171875 158.171875-158.171875s158.171875 70.816406 158.171875 158.171875zm0 0" fill="#fa9f6a"/><path d="m221.765625 347.039062c-4.9375-.464843-9.941406-.710937-15-.710937-87.355469 0-158.171875 70.816406-158.171875 158.171875h30c0-82.296875 62.851562-149.902344 143.171875-157.460938zm0 0" fill="#eb8f59"/><path d="m406.03125 205.253906c0 18.953125-15.367188 34.316406-34.316406 34.316406-18.953125 0-34.316406-15.363281-34.316406-34.316406s15.363281-34.316406 34.316406-34.316406c18.949218 0 34.316406 15.363281 34.316406 34.316406zm0 0" fill="#cc9883"/><path d="m76.132812 205.253906c0 18.953125-15.363281 34.316406-34.316406 34.316406-18.949218 0-34.316406-15.363281-34.316406-34.316406s15.367188-34.316406 34.316406-34.316406c18.953125 0 34.316406 15.363281 34.316406 34.316406zm0 0" fill="#cc9883"/><path d="m205.800781 325.453125h-66.050781l36.554688 114.019531c4.109374 12.820313 16.03125 21.515625 29.496093 21.515625 13.460938 0 25.382813-8.695312 29.492188-21.515625l36.558593-114.019531zm0 0" fill="#d9d7d8"/><path d="m205.800781 460.988281c9.265625 0 17.800781-4.121093 23.5625-10.871093l-22.976562-50.847657-23.566407 51.484375c5.746094 6.363282 14.011719 10.234375 22.980469 10.234375zm0 0" fill="#e36465"/><path d="m150.183594 358.003906 10.558594 32.929688c9.65625 3.777344 25.535156 8.335937 46.023437 8.335937 19.003906 0 34.039063-3.921875 43.824219-7.503906l12.757812-39.789063v-.074218h-113.164062zm0 0" fill="#efedee"/><path d="m379.878906 195.617188c0 95.609374-77.503906 173.117187-173.113281 173.117187s-173.113281-77.507813-173.113281-173.117187c0-95.605469 77.503906-173.113282 173.113281-173.113282s173.113281 77.507813 173.113281 173.113282zm0 0" fill="#fbc4ac"/><path d="m63.660156 195.617188c0-90.550782 69.527344-164.851563 158.109375-172.457032-4.945312-.425781-9.949219-.65625-15.003906-.65625-95.609375 0-173.113281 77.507813-173.113281 173.117188s77.503906 173.113281 173.113281 173.113281c5.054687 0 10.058594-.230469 15.003906-.65625-88.582031-7.605469-158.109375-81.90625-158.109375-172.460937zm0 0" fill="#e3b098"/><path d="m206.765625 22.503906c-95.609375 0-173.113281 77.507813-173.113281 173.113282 0 .609374.015625 1.210937.019531 1.820312 2.160156.171875 4.4375.285156 6.839844.285156 18.925781 0 52.246093-6.710937 76.277343-48.421875 16.636719 9.039063 46.445313 20.613281 90.003907 20.613281 43.5625 0 73.371093-11.574218 90.003906-20.613281 24.03125 41.710938 57.351563 48.421875 76.277344 48.421875h.003906c2.382813 0 4.636719-.109375 6.78125-.28125.003906-.605468.019531-1.210937.019531-1.820312 0-95.609375-77.503906-173.117188-173.113281-173.117188zm0 0" fill="#e3b098"/><path d="m239.636719 281.441406h-65.742188c-3.511719 0-6.359375-2.847656-6.359375-6.363281v-11.023437c0-21.667969 17.5625-39.234376 39.230469-39.234376s39.230469 17.566407 39.230469 39.234376v11.023437c0 3.515625-2.847656 6.363281-6.359375 6.363281zm0 0" fill="#efedee"/><path d="m197.542969 275.078125v-11.023437c0-16.351563 10.003906-30.363282 24.226562-36.253907-4.621093-1.914062-9.6875-2.980469-15.003906-2.980469-21.667969 0-39.230469 17.566407-39.230469 39.234376v11.023437c0 3.515625 2.847656 6.363281 6.359375 6.363281h30.007813c-3.511719 0-6.359375-2.847656-6.359375-6.363281zm0 0" fill="#d9d7d8"/><path d="m197.886719 419.152344-11.003907-11.003906c-4.90625-4.90625-4.90625-12.855469 0-17.761719l11.003907-11c4.902343-4.90625 12.855469-4.90625 17.757812 0l11.003907 11c4.902343 4.90625 4.902343 12.855469 0 17.761719l-11.003907 11.003906c-4.902343 4.902344-12.855469 4.902344-17.757812 0zm0 0" fill="#fd6f71"/><path d="m206.820312 7.5h-.054687c-98.238281 0-179.132813 75.695312-187.417969 171.824219 0 0 59.25 23.203125 91.539063-51.753907 0 0 30.851562 27.339844 95.90625 27.339844 65.054687 0 95.910156-27.339844 95.910156-27.339844 32.289063 74.957032 91.539063 51.753907 91.539063 51.753907-8.285157-96.128907-89.179688-171.824219-187.421876-171.824219zm0 0" fill="#efedee"/><path d="m221.964844 8.113281c-4.996094-.398437-10.042969-.613281-15.140625-.613281h-.058594c-98.238281 0-179.132813 75.695312-187.417969 171.824219 0 0 12.996094 5.089843 30.128906 2.800781 3.347657-92.746094 82.253907-166.636719 172.488282-174.011719zm0 0" fill="#d9d7d8"/><path d="m276.738281 246.25h-11.453125c-4.144531 0-7.5-3.359375-7.5-7.5s3.355469-7.5 7.5-7.5h11.453125c4.140625 0 7.5 3.359375 7.5 7.5s-3.359375 7.5-7.5 7.5zm0 0" fill="#fd6f71"/><path d="m148.246094 246.25h-11.453125c-4.144531 0-7.5-3.359375-7.5-7.5s3.355469-7.5 7.5-7.5h11.453125c4.140625 0 7.5 3.359375 7.5 7.5s-3.355469 7.5-7.5 7.5zm0 0" fill="#fd6f71"/><path d="m401.441406 175.867188c-4.035156-40.160157-20.175781-77.527344-46.785156-108.230469-2.710938-3.128907-7.449219-3.464844-10.582031-.753907-3.128907 2.714844-3.464844 7.449219-.753907 10.582032 23.785157 27.4375 38.515626 60.636718 42.8125 96.351562-5.335937 1.152344-14.152343 2.265625-24.15625.371094-22.417968-4.246094-40.042968-20.925781-52.386718-49.585938-.949219-2.199218-2.898438-3.800781-5.234375-4.332031-2.335938-.53125-4.796875.09375-6.605469 1.667969-.289062.253906-29.949219 25.472656-90.957031 25.472656-61.007813 0-90.664063-25.21875-90.933594-25.453125-1.800781-1.597656-4.261719-2.230469-6.605469-1.707031-2.351562.523438-4.304687 2.144531-5.257812 4.351562-23.753906 55.152344-62.375 52.4375-76.546875 49.273438 10.839843-89.570312 88.4375-158.875 179.375-158.875 42.441406 0 83.714843 15.078125 116.210937 42.457031 3.167969 2.671875 7.898438 2.265625 10.566406-.902343 2.667969-3.167969 2.265626-7.898438-.902343-10.566407-35.199219-29.65625-79.902344-45.988281-125.933594-45.988281-49.214844 0-96.28125 18.414062-132.527344 51.851562-35.316406 32.578126-57.28125 76.5-62.082031 123.945313-7.753906 7.808594-12.15625 18.378906-12.15625 29.457031 0 20.078125 14.089844 37.035156 33.375 40.964844 14.445312 49.425781 49.488281 90.148438 95.175781 112.1875-53.617187 28.644531-87.460937 84.359375-87.460937 146.09375 0 4.144531 3.359375 7.5 7.5 7.5h316.347656c4.140625 0 7.5-3.355469 7.5-7.5 0-61.703125-33.847656-117.445312-87.457031-146.09375 45.6875-22.042969 80.730469-62.765625 95.175781-112.195312 19.257812-3.9375 33.375-20.949219 33.375-40.957032 0-11.050781-4.378906-21.585937-12.089844-29.386718zm-386.441406 29.386718c0-6.4375 2.320312-12.609375 6.457031-17.441406 1.359375.355469 2.976563.726562 4.816407 1.074219-.082032 2.246093-.125 4.496093-.125 6.730469 0 11.390624 1.074218 22.535156 3.097656 33.347656-8.539063-4.515625-14.246094-13.480469-14.246094-23.710938zm342.253906 291.746094h-300.976562c2.777344-56.675781 36.929687-106.769531 88.902344-130.039062l23.984374 74.800781c5.125 15.984375 19.847657 26.726562 36.636719 26.726562 16.785157 0 31.507813-10.742187 36.636719-26.726562l24.21875-75.539063c52.914062 22.929688 87.789062 73.511719 90.597656 130.777344zm-122.503906-108.375c-.785156-1.253906-1.707031-2.449219-2.796875-3.539062l-9.539063-9.539063c9.179688-.789063 18.167969-2.273437 26.90625-4.390625l-4.722656 14.726562c-3.1875 1.046876-6.476562 1.964844-9.847656 2.742188zm4.363281 14.371094-9.46875 29.53125-5.21875-11.550782 7.527344-7.527343c2.847656-2.847657 4.648437-6.351563 5.421875-10.027344.582031-.128906 1.15625-.285156 1.738281-.425781zm-17.769531-.152344-11 11.003906c-.957031.957032-2.226562 1.480469-3.578125 1.480469s-2.621094-.523437-3.578125-1.480469l-11.003906-11.003906c-1.96875-1.972656-1.96875-5.179688 0-7.152344l11.003906-11.003906c.957031-.953125 2.226562-1.480469 3.578125-1.480469s2.621094.527344 3.578125 1.480469l11 11.003906c1.972656 1.972656 1.972656 5.179688 0 7.152344zm-.976562 45.578125c-4.042969 3.199219-9.121094 5.066406-14.570313 5.066406-5.144531 0-9.972656-1.65625-13.902344-4.542969l8.929688-19.511718c1.898437.585937 3.894531.894531 5.941406.894531 1.753906 0 3.464844-.242187 5.117187-.679687zm-38.789063-63.335937c-1.09375 1.09375-2.019531 2.292968-2.804687 3.550781-4.144532-.953125-8.152344-2.117188-12.003907-3.472657l-4.65625-14.519531c9.398438 2.398438 19.089844 4.046875 29.003907 4.902344zm6.90625 35.273437-6.132813 13.402344-10.023437-31.253907c1.265625.324219 2.542969.628907 3.832031.917969.769532 3.675781 2.570313 7.179688 5.417969 10.027344zm18.28125-59.125c-91.320313 0-165.613281-74.296875-165.613281-165.617187 0-1.796876.03125-3.605469.089844-5.410157 4.082031-.035156 8.511718-.402343 13.160156-1.28125 17.648437-3.34375 41.707031-14.851562 59.453125-49.992187 13.417969 8.53125 43.921875 23.476562 92.9375 23.476562s79.523437-14.945312 92.941406-23.476562c17.742187 35.140625 41.804687 46.648437 59.449219 49.992187 4.636718.875 9.035156 1.230469 13.105468 1.269531.058594 1.808594.09375 3.621094.09375 5.421876-.003906 91.320312-74.296874 165.617187-165.617187 165.617187zm177.519531-132.273437c2.023438-10.8125 3.09375-21.953126 3.09375-33.34375 0-2.234376-.039062-4.480469-.121094-6.722657 1.84375-.34375 3.460938-.71875 4.824219-1.070312 4.132813 4.828125 6.449219 10.992187 6.449219 17.429687 0 10.195313-5.710938 19.175782-14.246094 23.707032zm0 0"/><path d="m206.765625 217.320312c-25.769531 0-46.730469 20.964844-46.730469 46.734376v11.023437c0 7.644531 6.21875 13.863281 13.863282 13.863281h65.738281c7.644531 0 13.859375-6.21875 13.859375-13.863281v-11.023437c0-25.769532-20.960938-46.734376-46.730469-46.734376zm31.730469 56.621094h-63.460938v-9.886718c0-17.496094 14.234375-31.730469 31.730469-31.730469s31.730469 14.234375 31.730469 31.730469zm0 0"/><path d="m271.011719 198.144531c-4.140625 0-7.5 3.355469-7.5 7.5v11.453125c0 4.140625 3.359375 7.5 7.5 7.5s7.5-3.359375 7.5-7.5v-11.453125c0-4.144531-3.359375-7.5-7.5-7.5zm0 0"/><path d="m142.519531 198.144531c-4.140625 0-7.5 3.355469-7.5 7.5v11.453125c0 4.140625 3.359375 7.5 7.5 7.5s7.5-3.359375 7.5-7.5v-11.453125c0-4.144531-3.359375-7.5-7.5-7.5zm0 0"/></svg>