<svg viewBox="-49 0 512 512.00101" xmlns="http://www.w3.org/2000/svg"><path d="m344.402344 504.496094h-275.277344v-139.683594c0-12.621094 10.234375-22.851562 22.851562-22.851562h229.578126c12.617187 0 22.847656 10.230468 22.847656 22.851562zm0 0" fill="#46926f"/><path d="m406.03125 205.25c0 18.953125-15.363281 34.316406-34.316406 34.316406s-34.316406-15.363281-34.316406-34.316406 15.363281-34.316406 34.316406-34.316406 34.316406 15.363281 34.316406 34.316406zm0 0" fill="#cc9883"/><path d="m76.132812 205.25c0 18.953125-15.363281 34.316406-34.316406 34.316406s-34.316406-15.363281-34.316406-34.316406 15.363281-34.316406 34.316406-34.316406 34.316406 15.363281 34.316406 34.316406zm0 0" fill="#cc9883"/><path d="m48.589844 504.496094c0-87.355469 70.816406-158.171875 158.175781-158.171875 87.355469 0 158.171875 70.816406 158.171875 158.171875zm0 0" fill="#efedee"/><path d="m234.652344 504.496094-20-89.984375h-16.949219l-20 89.984375zm0 0" fill="#e36465"/><path d="m206.765625 354.835938h-58.273437v35.082031s22.226562 13.699219 58.273437 13.699219 58.273437-13.699219 58.273437-13.699219v-35.082031zm0 0" fill="#d9d7d8"/><path d="m221.765625 347.039062c-4.9375-.464843-9.941406-.714843-15-.714843-87.355469 0-158.175781 70.816406-158.175781 158.171875h30.003906c0-82.292969 62.851562-149.902344 143.171875-157.457032zm0 0" fill="#d9d7d8"/><path d="m262.792969 356.546875v147.949219h44v-122.523438c-13.085938-10.695312-27.917969-19.332031-44-25.425781zm0 0" fill="#58b78c"/><path d="m106.738281 381.972656v122.523438h44v-147.949219c-16.085937 6.09375-30.914062 14.730469-44 25.425781zm0 0" fill="#58b78c"/><path d="m379.882812 195.617188c0 95.609374-77.507812 173.113281-173.117187 173.113281s-173.117187-77.503907-173.117187-173.113281c0-95.609376 77.507812-173.117188 173.117187-173.117188s173.117187 77.507812 173.117187 173.117188zm0 0" fill="#fbc4ac"/><path d="m206.765625 22.5c-95.609375 0-173.117187 77.507812-173.117187 173.117188 0 95.609374 77.507812 173.113281 173.117187 173.113281 5.054687 0 10.058594-.230469 15.003906-.652344-88.582031-7.609375-158.113281-81.910156-158.113281-172.460937 0-.402344.011719-.800782.015625-1.203126 18.773437-1.34375 41.246094-4.636718 63.941406-11.898437 32.992188-10.550781 59.523438-27.15625 79.152344-49.488281 19.625 22.328125 46.160156 38.933594 79.144531 49.488281 32.851563 10.507813 65.230469 12.710937 86.605469 12.710937h.003906c2.640625 0 5.097657-.03125 7.351563-.089843-.253906-95.386719-77.65625-172.636719-173.105469-172.636719zm0 0" fill="#e3b098"/><path d="m206.765625 7.5c-98.238281 0-179.128906 75.691406-187.417969 171.816406 0 0 131.390625 14.347656 187.417969-70.988281 56.027344 85.335937 187.414063 70.988281 187.414063 70.988281-8.285157-96.125-89.175782-171.816406-187.414063-171.816406zm0 0" fill="#fadc60"/><path d="m49.351562 179.316406c7.859376-91.183594 81.054688-163.972656 172.414063-171.214844-4.949219-.390624-9.953125-.601562-15-.601562-98.238281 0-179.128906 75.691406-187.417969 171.816406 0 0 14.957032 1.628906 36.917969.519532-4.421875-.246094-6.914063-.519532-6.914063-.519532zm0 0" fill="#e6cb59"/><g fill="#fd6f71"><path d="m197.886719 419.148438-11.003907-11c-4.90625-4.90625-4.90625-12.859376 0-17.761719l11.003907-11.003907c4.902343-4.902343 12.855469-4.902343 17.757812 0l11.003907 11.003907c4.902343 4.902343 4.902343 12.855469 0 17.761719l-11.003907 11c-4.902343 4.90625-12.855469 4.90625-17.757812 0zm0 0"/><path d="m276.722656 246.316406h-11.453125c-4.140625 0-7.5-3.359375-7.5-7.5 0-4.144531 3.359375-7.5 7.5-7.5h11.453125c4.140625 0 7.5 3.355469 7.5 7.5 0 4.140625-3.359375 7.5-7.5 7.5zm0 0"/><path d="m148.261719 246.316406h-11.453125c-4.140625 0-7.5-3.359375-7.5-7.5 0-4.144531 3.359375-7.5 7.5-7.5h11.453125c4.140625 0 7.5 3.355469 7.5 7.5 0 4.140625-3.359375 7.5-7.5 7.5zm0 0"/></g><path d="m227.40625 230.40625c-3.59375-2.066406-8.179688-.828125-10.242188 2.761719-2.136718 3.71875-6.121093 6.023437-10.398437 6.023437s-8.261719-2.308594-10.398437-6.023437c-2.066407-3.589844-6.648438-4.828125-10.242188-2.761719-3.589844 2.0625-4.828125 6.648438-2.761719 10.238281 4.804688 8.355469 13.769531 13.546875 23.402344 13.546875 9.628906 0 18.597656-5.1875 23.402344-13.546875 2.0625-3.589843.828125-8.171875-2.761719-10.238281zm0 0"/><path d="m270.996094 198.214844c-4.140625 0-7.5 3.359375-7.5 7.5v11.453125c0 4.144531 3.359375 7.5 7.5 7.5s7.5-3.355469 7.5-7.5v-11.453125c0-4.140625-3.359375-7.5-7.5-7.5zm0 0"/><path d="m142.535156 198.214844c-4.140625 0-7.5 3.359375-7.5 7.5v11.453125c0 4.144531 3.359375 7.5 7.5 7.5 4.144532 0 7.5-3.355469 7.5-7.5v-11.453125c0-4.140625-3.355468-7.5-7.5-7.5zm0 0"/><path d="m401.378906 175.796875c-4.066406-40.292969-20.304687-77.753906-47.074218-108.5-2.722657-3.121094-7.460938-3.449219-10.582032-.730469-3.125 2.722656-3.453125 7.457032-.734375 10.582032 23.625 27.132812 38.371094 59.914062 42.90625 95.230468-28.019531 1.367188-127.445312 1-172.859375-68.164062-1.386718-2.113282-3.742187-3.386719-6.269531-3.386719s-4.882813 1.273437-6.269531 3.386719c-22 33.503906-58.800782 55.089844-109.382813 64.15625-27.433593 4.917968-51.726562 4.609375-63.476562 4.019531 11.511719-88.855469 88.753906-157.390625 179.128906-157.390625 43.023437 0 84.726563 15.445312 117.429687 43.496094 3.144532 2.695312 7.878907 2.335937 10.578126-.8125 2.695312-3.144532 2.332031-7.878906-.8125-10.574219-35.417969-30.378906-80.589844-47.109375-127.195313-47.109375-49.214844 0-96.28125 18.414062-132.523437 51.847656-35.316407 32.578125-57.28125 76.5-62.082032 123.941406-7.753906 7.8125-12.160156 18.375-12.160156 29.460938 0 20.054688 14.097656 37.03125 33.375 40.964844 10.214844 34.949218 30.726562 65.546875 58.023438 88.261718-16.46875.3125-29.773438 13.792969-29.773438 30.335938v59.628906c-13.214844 23.984375-20.535156 51.378906-20.535156 80.058594 0 4.140625 3.359375 7.5 7.5 7.5h129.085937.035157.023437 56.890625.019531.039063 130.257812c4.140625 0 7.5-3.359375 7.5-7.5 0-28.6875-7.320312-56.082031-20.535156-80.066406v-59.621094c0-16.539062-13.304688-30.023438-29.773438-30.335938 27.296876-22.714843 47.808594-53.3125 58.023438-88.261718 19.277344-3.933594 33.375-20.910156 33.375-40.964844 0-11.082031-4.402344-21.644531-12.152344-29.453125zm-386.378906 29.453125c0-6.765625 2.554688-13.234375 7.089844-18.164062 1.164062.085937 2.582031.183593 4.253906.273437-.125 2.75-.195312 5.511719-.195312 8.257813 0 11.386718 1.074218 22.53125 3.097656 33.34375-8.539063-4.519532-14.246094-13.492188-14.246094-23.710938zm61.625 159.5625c0-8.464844 6.886719-15.351562 15.351562-15.351562h20.269532c5.265625 3.246093 10.703125 6.238281 16.304687 8.941406-20.445312 10.925781-38.011719 25.792968-51.925781 43.429687zm22.613281 132.183594h-42.960937c1.84375-37.550782 17.488281-72.238282 42.960937-98.136719zm44-105.925782c-.003906.105469-.003906.210938 0 .316407v105.609375h-29v-111.46875c8.855469-6.875 18.550781-12.835938 29-17.691406zm28.449219 105.925782h-13.449219v-94.355469c5.226563 1.960937 11.808594 3.988281 19.589844 5.578125.941406 1.886719 2.179687 3.660156 3.75 5.230469l7.09375 7.09375zm9.890625-111.914063c-2.199219 2.203125-3.757813 4.796875-4.722656 7.558594-8.148438-1.953125-14.472657-4.363281-18.617188-6.203125v-16.835938c10.601563 2.960938 21.59375 4.972657 32.878907 5.945313zm10.605469 10.609375 11.003906-11.003906c.957031-.957031 2.226562-1.480469 3.578125-1.480469s2.621094.523438 3.578125 1.480469l11 11.003906c1.972656 1.96875 1.972656 5.179688 0 7.148438l-11 11.003906c-.957031.957031-2.226562 1.480469-3.578125 1.480469s-2.621094-.523438-3.578125-1.480469l-11.003906-11.003906c-1.96875-1.96875-1.96875-5.179688 0-7.148438zm-5.132813 101.304688 14.945313-67.261719c1.546875.378906 3.140625.59375 4.769531.59375 1.238281 0 2.457031-.125 3.652344-.34375l14.886719 67.015625h-38.253907zm68.242188 0h-14.625l-16.769531-75.492188 8.050781-8.054687c1.570312-1.570313 2.8125-3.34375 3.75-5.230469 7.789062-1.589844 14.367187-3.617188 19.59375-5.578125zm0-110.558594c-4.128907 1.832031-10.460938 4.246094-18.617188 6.203125-.964843-2.761719-2.523437-5.355469-4.722656-7.558594l-9.539063-9.535156c11.285157-.972656 22.277344-2.984375 32.878907-5.945313zm44 110.558594h-29v-129.15625c10.449219 4.851562 20.144531 10.8125 29 17.683594zm57.960937 0h-42.960937v-98.140625c25.472656 25.898437 41.117187 60.578125 42.960937 98.140625zm-20.347656-132.183594v37.011719c-13.914062-17.632813-31.480469-32.496094-51.925781-43.421875 5.601562-2.703125 11.039062-5.695313 16.304687-8.941406h20.269532c8.464843 0 15.351562 6.886718 15.351562 15.351562zm-130.140625-3.582031c-91.320313 0-165.617187-74.292969-165.617187-165.613281 0-2.621094.070312-5.253907.191406-7.875 13.476562-.011719 31.816406-.945313 52.019531-4.535157 49.773437-8.84375 88.730469-30.1875 113.40625-61.988281 24.675781 31.800781 63.632813 53.148438 113.40625 61.988281 20.203125 3.589844 38.542969 4.519531 52.015625 4.535157.125 2.625.195312 5.253906.195312 7.875 0 91.320312-74.296874 165.613281-165.617187 165.613281zm177.515625-132.269531c2.027344-10.8125 3.101562-21.957032 3.101562-33.34375 0-2.746094-.070312-5.503907-.195312-8.257813 1.671875-.089844 3.089844-.1875 4.25-.273437 4.539062 4.929687 7.09375 11.398437 7.09375 18.164062 0 10.21875-5.707031 19.191406-14.25 23.710938zm0 0"/></svg>