<?xml version="1.0" encoding="iso-8859-1"?>
<!-- Generator: Adobe Illustrator 19.0.0, SVG Export Plug-In . SVG Version: 6.00 Build 0)  -->
<svg version="1.1" id="Layer_1" xmlns="http://www.w3.org/2000/svg" xmlns:xlink="http://www.w3.org/1999/xlink" x="0px" y="0px"
	 viewBox="0 0 512 512" style="enable-background:new 0 0 512 512;" xml:space="preserve">
<path style="fill:#F9A825;" d="M503.467,256c0,136.67-110.797,247.467-247.467,247.467c-7.168,0-14.336,0-21.333-1.024
	C98.56,490.018-1.707,369.621,10.709,233.515C21.564,114.611,115.763,20.412,234.667,9.557c6.997-1.024,14.165-1.024,21.333-1.024
	C392.67,8.533,503.467,119.33,503.467,256z"/>
<path style="fill:#FFC107;" d="M460.8,256c-0.094,128.333-98.278,235.298-226.133,246.357
	C98.56,489.933-1.707,369.536,10.709,233.429C21.564,114.526,115.763,20.326,234.667,9.472C362.581,20.54,460.792,127.607,460.8,256
	z"/>
<path style="fill:#B71C1C;" d="M314.368,99.328l-14.507,196.267c-0.674,8.926-8.115,15.812-17.067,15.787h-53.589
	c-8.951,0.026-16.393-6.861-17.067-15.787L197.632,99.328c-0.708-9.395,6.34-17.596,15.735-18.295
	c0.444-0.034,0.887-0.051,1.331-0.051h82.773c9.429,0.068,17.015,7.765,16.947,17.186C314.411,98.56,314.394,98.944,314.368,99.328z
	"/>
<path style="fill:#D50000;" d="M290.133,99.328l-14.507,196.267c-0.674,8.926-8.115,15.812-17.067,15.787h-29.355
	c-8.951,0.026-16.393-6.861-17.067-15.787L197.632,99.328c-0.708-9.395,6.34-17.596,15.735-18.295
	c0.444-0.034,0.887-0.051,1.331-0.051h58.368c9.429-0.026,17.092,7.595,17.118,17.015C290.185,98.441,290.167,98.884,290.133,99.328
	z"/>
<path style="fill:#B71C1C;" d="M230.4,354.048h51.2c9.429,0,17.067,7.637,17.067,17.067v42.667c0,9.429-7.637,17.067-17.067,17.067
	h-51.2c-9.429,0-17.067-7.637-17.067-17.067v-42.667C213.333,361.685,220.971,354.048,230.4,354.048z"/>
<path style="fill:#D50000;" d="M230.4,354.048H256c9.429,0,17.067,7.637,17.067,17.067v42.667c0,9.429-7.637,17.067-17.067,17.067
	h-25.6c-9.429,0-17.067-7.637-17.067-17.067v-42.667C213.333,361.685,220.971,354.048,230.4,354.048z"/>
<path d="M256,512C114.611,512,0,397.389,0,256S114.611,0,256,0s256,114.611,256,256S397.389,512,256,512z M256,17.067
	C124.041,17.067,17.067,124.041,17.067,256S124.041,494.933,256,494.933S494.933,387.96,494.933,256S387.96,17.067,256,17.067z"/>
<path d="M282.795,319.915h-53.589c-13.44,0.034-24.619-10.325-25.6-23.723L189.099,99.925c-1.041-14.097,9.557-26.368,23.654-27.409
	c0.649-0.051,1.297-0.068,1.946-0.068h82.688c14.14-0.034,25.634,11.392,25.668,25.532c0,0.649-0.017,1.297-0.068,1.946
	L308.48,296.192C307.49,309.623,296.26,320,282.795,319.915z M214.528,89.515c-4.71-0.009-8.542,3.797-8.55,8.516
	c0,0.205,0.009,0.41,0.017,0.614l14.507,196.267c0.316,4.48,4.045,7.945,8.533,7.936h53.675c4.489,0.009,8.218-3.456,8.533-7.936
	l14.507-196.267c0.333-4.702-3.217-8.781-7.919-9.114c-0.205-0.017-0.41-0.026-0.614-0.017L214.528,89.515L214.528,89.515z"/>
<path d="M281.6,439.381h-51.2c-14.14,0-25.6-11.46-25.6-25.6v-42.667c0-14.14,11.46-25.6,25.6-25.6h51.2
	c14.14,0,25.6,11.46,25.6,25.6v42.667C307.2,427.921,295.74,439.381,281.6,439.381z M230.4,362.581c-4.71,0-8.533,3.823-8.533,8.533
	v42.667c0,4.71,3.823,8.533,8.533,8.533h51.2c4.71,0,8.533-3.823,8.533-8.533v-42.667c0-4.71-3.823-8.533-8.533-8.533H230.4z"/>
<g>
</g>
<g>
</g>
<g>
</g>
<g>
</g>
<g>
</g>
<g>
</g>
<g>
</g>
<g>
</g>
<g>
</g>
<g>
</g>
<g>
</g>
<g>
</g>
<g>
</g>
<g>
</g>
<g>
</g>
</svg>
